<?xml version="1.0" standalone="no"?>
<!DOCTYPE svg PUBLIC "-//W3C//DTD SVG 20010904//EN"
 "http://www.w3.org/TR/2001/REC-SVG-20010904/DTD/svg10.dtd">
<svg version="1.0" xmlns="http://www.w3.org/2000/svg"
 width="9742.000000pt" height="3488.000000pt" viewBox="0 0 9742.000000 3488.000000"
 preserveAspectRatio="xMidYMid meet">

<g transform="translate(0.000000,3488.000000) scale(0.100000,-0.100000)"
fill="rgba(255,255,255,.8)" stroke="none">
<path d="M16795 34869 c-1019 -42 -2062 -196 -3090 -456 -3468 -876 -6773
-2997 -9316 -5978 -2498 -2929 -4054 -6459 -4338 -9845 -39 -456 -45 -637 -45
-1195 0 -649 18 -1045 74 -1640 236 -2491 997 -4902 2231 -7056 1701 -2972
4211 -5362 7229 -6883 2018 -1018 4132 -1603 6400 -1771 1225 -90 2385 -41
3680 156 1003 153 2172 419 2850 648 927 313 1707 642 2720 1148 1082 540
2182 1163 3417 1935 l271 170 6 82 c8 114 146 3789 142 3793 -1 2 -15 -14 -30
-34 -27 -38 -29 -33 -8 27 3 8 -105 -93 -239 -225 -1380 -1358 -2976 -2474
-4679 -3270 -1407 -658 -2584 -1066 -3779 -1310 -855 -174 -1623 -258 -2501
-272 -956 -15 -1816 68 -2799 268 -1652 338 -3158 920 -4541 1756 -1445 874
-2827 2071 -3962 3433 -1546 1855 -2602 3968 -3067 6140 -256 1196 -339 2418
-246 3630 169 2191 880 4338 2093 6315 509 829 1114 1629 1811 2395 171 187
802 815 1000 995 1319 1193 2771 2125 4336 2782 1280 537 2638 875 3965 987
661 56 1388 56 2050 0 1956 -165 3931 -805 5767 -1871 1731 -1003 3294 -2362
4498 -3908 1566 -2012 2546 -4419 2915 -7155 86 -639 126 -1193 137 -1880 5
-363 4 -429 -11 -523 -74 -468 -272 -959 -554 -1372 -575 -844 -1497 -1411
-2519 -1550 -991 -134 -1869 152 -2690 877 -597 527 -1158 1371 -1401 2108
l-32 95 -3 3675 c-2 2937 -5 3685 -16 3725 -56 221 -138 378 -271 519 -314
333 -806 428 -1217 236 -309 -145 -524 -417 -593 -750 -22 -103 -22 -121 -21
-925 l1 -820 -86 95 c-154 169 -485 492 -638 623 -1107 949 -2419 1505 -3871
1642 -231 22 -762 30 -1000 16 -1066 -64 -2048 -367 -2955 -909 -1529 -915
-2737 -2505 -3265 -4297 -126 -429 -208 -851 -252 -1305 -24 -245 -23 -779 0
-1020 79 -788 286 -1513 649 -2271 315 -656 787 -1353 1229 -1813 693 -721
1630 -1326 2606 -1680 643 -233 1324 -373 2028 -417 214 -13 799 -7 985 11
1163 109 2210 475 3165 1105 165 109 527 373 540 395 5 8 84 2219 85 2369 0
33 -2 31 -136 -103 -771 -773 -1704 -1300 -2814 -1590 -717 -188 -1457 -216
-2138 -80 -1451 288 -2637 1172 -3277 2440 -467 924 -617 2021 -419 3049 213
1101 773 2028 1653 2733 141 114 442 316 606 406 732 407 1540 604 2390 583
1028 -26 1986 -371 2870 -1035 243 -183 788 -752 1043 -1088 232 -308 434
-697 535 -1034 44 -143 139 -574 251 -1128 l86 -424 0 -172 c0 -307 33 -687
90 -1023 268 -1588 1091 -2936 2330 -3815 893 -633 1986 -1010 3210 -1109 192
-15 650 -15 825 0 1946 171 3636 1137 4688 2681 314 461 543 967 706 1560 146
531 213 1017 215 1555 4 1366 -11 1888 -80 2635 -44 491 -79 715 -180 1175
-251 1140 -680 2416 -1197 3561 -978 2165 -2270 4013 -3842 5494 -1791 1687
-3846 3019 -5975 3870 -1525 611 -3091 976 -4650 1085 -496 34 -1153 44 -1635
24z"/>
<path d="M50110 29253 c-82 -8 -255 -45 -327 -69 -425 -143 -662 -475 -701
-984 -5 -59 4 -1581 19 -3475 16 -1853 28 -3531 29 -3728 l0 -358 -89 108
c-715 873 -1799 1492 -3041 1737 -701 138 -1472 159 -2305 61 -1486 -175
-2764 -738 -3854 -1699 -1025 -904 -1672 -1987 -1921 -3216 -85 -422 -115
-737 -114 -1220 0 -388 9 -510 59 -832 191 -1231 858 -2356 1965 -3314 1061
-917 2360 -1417 3935 -1514 221 -14 820 -13 1027 0 1834 121 3242 851 4281
2218 74 97 87 110 91 90 2 -13 11 -345 19 -738 14 -652 17 -723 36 -802 76
-328 275 -552 580 -654 131 -44 251 -62 480 -75 539 -29 994 71 1261 276 164
126 240 265 295 534 104 509 114 1222 50 3331 -54 1794 -49 1259 -85 7740 -16
2835 -31 5234 -34 5330 -7 253 -45 418 -139 605 -57 114 -109 188 -205 287
-191 198 -430 312 -741 354 -97 12 -473 17 -571 7z m-5392 -9439 c799 -82
1488 -409 2052 -974 520 -520 811 -1158 891 -1955 17 -165 17 -634 1 -785
-101 -927 -500 -1632 -1242 -2195 -542 -410 -1128 -642 -1850 -732 -207 -25
-755 -26 -955 0 -699 90 -1285 341 -1815 780 -112 93 -342 319 -439 432 -448
519 -694 1132 -718 1788 -4 108 -3 167 4 167 6 0 13 62 16 153 38 877 352
1612 957 2241 410 426 905 740 1447 916 316 103 640 159 1058 184 110 7 448
-5 593 -20z"/>
<path d="M75709 27085 c-582 -80 -942 -416 -1068 -998 -47 -216 -50 -284 -66
-1522 -9 -649 -18 -1204 -21 -1232 l-5 -53 -1047 0 c-651 0 -1090 -4 -1162
-11 -243 -22 -445 -78 -606 -170 -94 -53 -233 -186 -283 -271 -167 -285 -185
-741 -41 -1043 20 -44 50 -96 64 -115 172 -227 445 -346 842 -367 l120 -6 15
54 14 54 1063 3 1062 2 0 -637 c0 -708 -12 -1460 -35 -2223 -35 -1167 -47
-2791 -25 -3360 51 -1292 304 -2250 784 -2960 422 -624 1054 -1051 1906 -1285
574 -158 1230 -224 2023 -203 619 16 1158 103 1632 265 231 79 368 158 505
293 169 166 261 364 291 626 34 299 -62 561 -291 795 -127 130 -271 215 -433
258 -107 28 -260 44 -347 36 -115 -10 -343 -58 -568 -120 -427 -118 -630 -149
-952 -148 -489 1 -862 95 -1165 294 -100 66 -284 249 -350 349 -228 345 -384
857 -455 1491 -11 101 -25 238 -32 304 -8 88 -13 919 -15 3142 l-4 3022 1708
4 c1545 3 1718 5 1813 20 592 96 870 406 870 972 0 320 -85 547 -268 716 -89
82 -197 143 -336 190 -213 72 -237 74 -991 74 -368 0 -1158 -4 -1753 -9 -1052
-8 -1084 -7 -1079 10 3 11 11 231 17 489 24 1039 30 1277 42 1680 16 581 -3
837 -81 1067 -110 324 -308 471 -708 523 -140 18 -449 18 -584 0z"/>
<path d="M61090 22619 c-628 -32 -1206 -140 -1762 -327 -610 -207 -1241 -553
-1755 -964 -1002 -802 -1712 -1822 -2068 -2973 -172 -555 -259 -1088 -287
-1747 -25 -603 31 -1186 166 -1721 242 -955 718 -1780 1451 -2512 209 -210
357 -339 580 -508 890 -673 1909 -1034 3147 -1117 203 -14 775 -13 976 0 1733
117 2983 790 3828 2059 l89 133 17 -228 c45 -586 117 -1081 198 -1354 68 -229
171 -365 334 -445 158 -78 310 -105 592 -105 545 0 961 132 1205 382 79 81
131 174 160 289 35 137 36 462 5 1204 -45 1077 -53 1460 -78 3805 -17 1537
-15 2390 7 3210 18 712 17 1468 -4 1710 -44 501 -124 786 -260 928 -59 61
-106 86 -213 112 -183 44 -675 100 -877 100 -489 0 -794 -204 -924 -616 -31
-97 -81 -376 -102 -564 -14 -131 -35 -511 -35 -654 l0 -69 -57 79 c-241 337
-554 665 -883 926 -612 485 -1371 798 -2220 917 -350 49 -859 70 -1230 50z
m710 -2663 c664 -93 1219 -344 1740 -785 576 -489 915 -1109 1038 -1896 39
-249 46 -354 46 -680 0 -363 -13 -509 -69 -790 -158 -791 -571 -1431 -1240
-1920 -618 -452 -1400 -680 -2230 -651 -850 29 -1531 307 -2113 861 -588 561
-895 1246 -938 2092 -7 142 -7 143 18 180 25 36 26 46 32 223 23 744 248 1441
651 2010 211 298 487 581 772 792 445 331 987 533 1558 581 119 10 623 -2 735
-17z"/>
<path d="M90385 22599 c-1355 -93 -2508 -532 -3510 -1334 -186 -149 -308 -258
-493 -440 -1228 -1203 -1841 -2699 -1842 -4495 -1 -1248 346 -2331 1049 -3275
267 -358 600 -709 946 -999 859 -717 1899 -1146 3090 -1275 301 -33 482 -42
843 -41 435 0 681 15 1047 66 1458 203 2576 869 3334 1988 85 125 101 145 101
120 0 -123 67 -771 106 -1024 74 -484 150 -713 284 -853 102 -107 207 -163
384 -204 88 -21 437 -23 571 -5 299 42 515 132 658 276 110 112 177 256 199
432 13 104 12 132 -62 1374 -75 1254 -78 1800 -26 5286 42 2827 44 3156 27
3304 -30 265 -81 461 -164 630 -132 267 -353 383 -777 406 -237 12 -448 -24
-615 -106 -171 -84 -281 -194 -365 -365 -79 -163 -138 -448 -176 -865 -4 -41
-10 -185 -13 -319 l-6 -244 -87 114 c-313 412 -672 760 -1064 1031 -647 447
-1399 708 -2314 804 -182 19 -917 28 -1125 13z m580 -2769 c786 -49 1438 -327
2055 -875 379 -336 659 -768 824 -1270 223 -676 244 -1588 52 -2272 -147 -523
-391 -939 -775 -1324 -97 -96 -225 -215 -286 -263 -526 -417 -1127 -654 -1830
-722 -189 -18 -570 -20 -735 -4 -750 73 -1363 352 -1879 854 -560 545 -857
1175 -920 1949 -17 200 -15 284 8 316 16 22 21 51 26 161 8 190 23 367 41 490
128 904 544 1669 1224 2251 594 509 1372 760 2195 709z"/>
<path d="M62262 8645 c-59 -26 -92 -56 -120 -108 l-27 -52 -5 -754 -5 -753
-33 46 c-40 55 -128 131 -204 174 -138 79 -338 118 -528 102 -302 -25 -533
-132 -737 -343 -228 -236 -339 -498 -359 -852 -28 -473 218 -921 613 -1119
284 -143 655 -151 913 -21 126 63 258 183 330 299 21 34 25 37 31 20 4 -10 11
-69 17 -129 10 -117 28 -170 74 -212 53 -50 147 -70 248 -53 84 14 140 51 171
112 l22 43 2 1725 c1 1440 -1 1731 -12 1760 -35 89 -120 130 -266 130 -57 -1
-105 -6 -125 -15z m-713 -1845 c215 -27 380 -147 476 -345 58 -121 77 -210 77
-365 1 -229 -54 -379 -187 -519 -118 -122 -236 -181 -408 -202 -195 -24 -360
34 -502 175 -158 157 -231 355 -204 553 22 167 41 238 86 333 39 80 59 108
132 180 119 119 224 172 376 190 33 4 62 8 65 9 3 0 43 -4 89 -9z"/>
<path d="M84776 8650 c-42 -13 -90 -49 -116 -87 -49 -72 -50 -87 -50 -861 l0
-724 -39 49 c-157 199 -424 298 -734 273 -547 -45 -974 -449 -1072 -1015 -20
-117 -24 -356 -6 -456 63 -365 294 -690 601 -844 182 -92 442 -132 645 -101
108 16 222 53 295 94 110 63 236 181 298 279 15 24 30 43 33 43 3 0 10 -56 16
-124 9 -105 14 -131 39 -176 16 -29 45 -63 64 -76 94 -63 275 -50 353 24 65
62 60 -78 65 1727 2 902 4 1674 5 1715 2 101 -8 144 -45 186 -54 61 -99 78
-218 81 -58 1 -118 -2 -134 -7z m-651 -1862 c100 -21 193 -75 280 -162 92 -92
142 -180 176 -311 29 -109 32 -336 5 -440 -53 -206 -184 -364 -371 -450 -353
-163 -735 2 -878 379 -30 78 -31 87 -30 221 3 279 70 456 229 605 161 150 367
206 589 158z"/>
<path d="M89002 8647 c-48 -18 -100 -63 -121 -105 -43 -84 -44 -119 -37 -860
l7 -702 -93 94 c-80 81 -106 100 -188 139 -134 65 -244 90 -400 89 -414 0
-754 -184 -986 -534 -135 -202 -204 -452 -204 -734 0 -337 107 -604 339 -847
172 -180 388 -280 664 -308 228 -23 447 25 604 132 70 48 179 155 230 227 25
35 47 62 48 60 2 -2 9 -57 15 -123 13 -131 27 -175 68 -218 50 -53 98 -71 192
-71 128 0 209 43 245 129 5 11 11 704 13 1540 2 836 5 1617 6 1735 1 212 1
216 -24 259 -18 31 -41 53 -80 75 -51 28 -63 31 -160 33 -65 2 -117 -2 -138
-10z m-628 -1863 c159 -39 308 -165 387 -329 61 -127 73 -187 74 -365 0 -181
-9 -228 -70 -355 -97 -203 -280 -334 -511 -366 -225 -31 -438 60 -582 249 -65
86 -106 176 -127 281 -30 148 7 402 80 540 150 284 443 420 749 345z"/>
<path d="M65610 8464 c-14 -2 -56 -9 -94 -15 -211 -35 -405 -150 -543 -323
-215 -271 -256 -616 -113 -959 28 -67 88 -175 143 -259 l18 -26 -63 -43 c-81
-55 -216 -186 -279 -269 -118 -156 -185 -352 -196 -566 -15 -310 84 -567 297
-767 182 -171 395 -281 658 -339 131 -30 496 -32 639 -5 253 48 460 137 623
268 l57 47 44 -35 c158 -127 360 -260 422 -278 63 -19 157 -19 201 -1 80 33
142 117 153 204 11 94 -46 169 -221 290 -147 100 -266 191 -266 201 0 5 14 41
30 82 136 330 111 711 -61 929 l-39 50 102 0 c117 0 221 13 290 36 93 30 143
137 120 252 -14 69 -41 105 -100 134 -54 26 -47 26 -668 11 l-351 -8 -58 -30
c-78 -40 -105 -89 -105 -187 0 -38 6 -83 13 -101 22 -51 88 -104 154 -122 113
-32 124 -37 177 -86 103 -94 163 -265 152 -431 -5 -78 -34 -188 -57 -212 -8
-9 -157 114 -399 329 -307 273 -765 746 -863 892 -86 129 -135 265 -144 398
-10 151 30 261 128 355 132 127 310 150 551 74 131 -42 214 -52 258 -34 72 30
159 177 131 222 -6 10 -11 27 -11 38 0 34 -36 94 -79 133 -101 91 -276 145
-491 152 -74 2 -146 2 -160 -1z m416 -2606 c115 -108 237 -220 272 -250 l62
-53 -32 -27 c-51 -43 -176 -105 -257 -127 -100 -28 -267 -45 -376 -38 -304 19
-560 192 -646 437 -19 54 -23 86 -23 185 0 213 50 332 202 484 l94 94 248
-254 c136 -140 341 -342 456 -451z"/>
<path d="M44279 7966 c-103 -36 -159 -108 -179 -225 -6 -36 -14 -158 -18 -271
l-7 -205 -175 -5 c-183 -6 -195 -8 -248 -47 -93 -69 -109 -269 -29 -360 51
-58 74 -63 283 -63 l187 0 -7 -557 c-6 -474 -5 -574 8 -663 55 -380 219 -587
524 -662 69 -17 116 -21 232 -21 345 1 490 91 490 302 0 108 -49 191 -132 226
-49 20 -87 19 -178 -5 -84 -22 -166 -25 -225 -9 -56 16 -117 81 -143 152 -42
112 -46 176 -47 722 l0 520 280 5 c185 3 287 9 300 17 133 77 135 358 3 430
-29 16 -69 19 -308 23 l-275 5 4 261 c4 280 0 310 -47 373 -36 49 -92 71 -182
70 -41 0 -91 -6 -111 -13z"/>
<path d="M56240 7971 c-82 -25 -151 -94 -176 -176 -14 -43 -31 -295 -33 -492
l-1 -42 -178 -3 -179 -3 -48 -30 c-70 -43 -97 -99 -97 -202 0 -117 29 -176
104 -214 33 -17 60 -19 224 -19 l187 0 -6 -534 c-5 -368 -4 -566 4 -637 41
-378 196 -607 472 -694 116 -37 253 -49 392 -36 277 27 387 110 388 293 0 84
-19 137 -66 187 -62 65 -120 74 -247 41 -241 -63 -358 19 -400 280 -6 38 -10
280 -10 588 l0 522 264 0 c162 0 276 4 293 11 74 28 123 116 123 223 0 100
-37 174 -105 213 -39 22 -49 23 -308 23 l-268 0 3 273 c3 244 1 276 -15 312
-40 89 -103 125 -217 124 -41 0 -86 -4 -100 -8z"/>
<path d="M69676 7960 c-130 -51 -176 -160 -176 -421 0 -69 -3 -160 -6 -202
l-7 -77 -166 0 c-178 0 -216 -9 -270 -60 -75 -73 -84 -274 -14 -352 43 -49 85
-58 280 -58 l182 0 3 -92 c2 -51 0 -262 -5 -468 -12 -507 -2 -671 48 -844 69
-236 214 -393 426 -461 256 -81 639 -36 733 88 26 33 56 130 56 178 0 83 -59
187 -124 219 -53 25 -100 25 -195 0 -171 -46 -289 -12 -345 99 -59 116 -59
118 -63 729 l-4 562 269 0 c262 0 270 1 313 23 67 36 94 96 94 212 0 106 -18
151 -78 199 l-39 31 -279 3 -280 3 3 277 3 277 -29 52 c-41 73 -100 103 -205
103 -50 -1 -93 -7 -125 -20z"/>
<path d="M78722 7961 c-139 -48 -181 -158 -182 -471 0 -85 -3 -172 -6 -192
l-7 -38 -164 0 c-178 0 -213 -7 -267 -58 -45 -43 -66 -97 -66 -178 0 -115 33
-182 104 -215 35 -16 67 -19 223 -19 l182 0 7 -57 c4 -32 2 -256 -5 -498 -17
-639 1 -797 116 -1018 47 -90 154 -200 238 -244 215 -113 573 -120 778 -17
119 61 162 233 90 366 -54 100 -137 126 -277 89 -223 -59 -344 8 -393 218 -16
68 -18 133 -18 621 l0 545 275 5 c314 6 324 8 369 90 29 52 40 171 22 238 -15
53 -71 117 -116 132 -20 6 -136 12 -291 13 l-259 2 4 251 c3 211 1 260 -13
308 -20 67 -65 117 -123 134 -58 17 -160 14 -221 -7z"/>
<path d="M93437 7964 c-74 -23 -131 -86 -157 -171 -17 -57 -22 -108 -28 -298
l-7 -230 -180 -5 c-167 -5 -183 -7 -218 -28 -80 -50 -114 -133 -104 -249 8
-86 42 -144 100 -172 39 -19 61 -21 231 -21 l188 0 -7 -567 c-6 -486 -5 -583
9 -669 62 -410 266 -623 636 -664 115 -13 237 -7 345 17 178 40 253 111 263
253 5 80 -8 134 -49 189 -56 79 -137 97 -264 61 -189 -54 -316 -1 -370 155
-38 112 -46 251 -43 765 l3 465 275 5 c230 4 280 8 305 21 69 38 94 95 95 215
0 70 -4 89 -28 135 -21 41 -38 59 -73 76 -44 23 -54 24 -310 26 l-264 2 0 280
c0 272 -1 281 -23 322 -12 24 -41 55 -63 70 -35 23 -53 27 -127 30 -58 2 -103
-2 -135 -13z"/>
<path d="M46827 7319 c-259 -21 -484 -95 -670 -220 -79 -54 -215 -185 -277
-269 -100 -135 -170 -297 -212 -493 -32 -147 -32 -450 -1 -584 52 -221 151
-393 315 -549 178 -169 384 -274 618 -315 105 -18 353 -16 470 5 510 91 901
481 981 981 19 116 16 350 -6 465 -71 379 -288 700 -570 842 -92 47 -169 73
-325 112 -149 37 -162 38 -323 25z m173 -505 c107 -24 205 -79 285 -159 126
-127 186 -264 206 -471 25 -269 -64 -497 -253 -653 -227 -188 -534 -213 -756
-63 -125 86 -228 228 -268 372 -24 85 -24 322 -1 426 74 331 283 532 587 567
47 5 121 -2 200 -19z"/>
<path d="M51245 7310 c-105 -14 -187 -39 -290 -90 -130 -64 -248 -159 -332
-265 l-67 -85 -32 60 c-93 174 -256 303 -449 354 -87 24 -249 31 -340 17 -241
-39 -436 -161 -552 -344 l-30 -47 -7 93 c-12 160 -40 223 -119 268 -37 21 -54
24 -143 24 -92 0 -105 -3 -159 -30 -52 -27 -63 -38 -90 -89 l-30 -60 -3 -469
c-3 -434 -2 -469 13 -463 16 6 16 -34 10 -542 -8 -579 -7 -591 37 -654 32 -46
119 -81 213 -86 132 -7 235 33 279 108 20 34 21 53 26 670 l6 635 26 96 c78
287 237 420 503 422 137 0 198 -23 281 -107 66 -67 110 -147 141 -256 17 -61
18 -110 14 -715 -2 -486 0 -661 9 -695 25 -93 122 -150 255 -150 133 0 226 55
267 158 22 57 23 61 29 692 6 699 5 688 71 812 37 70 135 166 206 202 79 40
173 59 272 53 186 -9 289 -89 351 -270 45 -132 49 -212 37 -869 -13 -664 -13
-653 51 -717 53 -53 123 -76 231 -74 135 2 211 38 252 121 l23 47 3 699 c4
761 2 800 -54 977 -48 154 -154 327 -247 402 -114 93 -258 149 -426 166 -114
12 -148 12 -236 1z"/>
<path d="M58585 7305 c-241 -45 -428 -147 -611 -337 -228 -236 -345 -512 -369
-873 -34 -508 280 -989 758 -1160 147 -53 269 -69 471 -62 277 9 449 47 646
144 222 109 299 231 241 382 -25 66 -65 117 -118 148 -38 22 -52 25 -116 22
-66 -4 -84 -10 -217 -77 -194 -97 -265 -115 -450 -116 -124 -1 -155 2 -215 21
-228 72 -402 275 -431 501 l-7 52 584 0 c747 1 877 10 969 72 69 46 94 104
112 256 22 177 -21 371 -119 535 -57 96 -216 263 -311 326 -95 64 -216 118
-327 147 -127 33 -363 42 -490 19z m367 -485 c168 -52 301 -208 328 -387 13
-83 5 -107 -37 -117 -39 -8 -1062 -31 -1069 -23 -12 12 27 142 64 212 45 85
154 202 231 249 145 88 331 113 483 66z"/>
<path d="M76756 7309 c-174 -19 -330 -74 -473 -169 -235 -155 -345 -342 -346
-585 -1 -224 88 -369 292 -474 53 -27 123 -58 156 -69 70 -24 254 -62 444 -92
159 -25 307 -62 361 -90 115 -59 143 -229 56 -343 -39 -51 -153 -112 -241
-128 -76 -14 -267 -6 -368 15 -43 9 -153 40 -245 67 -202 61 -287 71 -354 41
-50 -22 -90 -68 -106 -122 -19 -63 -24 -138 -12 -174 51 -154 482 -296 903
-296 246 0 423 36 596 121 89 44 118 65 191 138 70 69 95 102 129 171 58 119
74 204 68 365 -7 192 -52 302 -165 406 -153 139 -384 219 -787 270 -244 30
-337 66 -383 148 -44 78 -14 196 66 259 87 69 198 102 346 102 118 0 224 -19
401 -70 229 -66 315 -64 386 10 59 62 78 184 39 259 -63 125 -324 217 -665
236 -60 3 -132 7 -160 9 -27 2 -86 0 -129 -5z"/>
<path d="M81092 7305 c-224 -41 -408 -135 -575 -294 -187 -178 -307 -390 -375
-661 -25 -98 -27 -120 -26 -320 0 -202 1 -221 27 -315 90 -332 361 -637 679
-764 161 -65 231 -76 468 -75 230 0 317 11 487 60 105 29 252 98 333 155 123
86 162 205 106 324 -50 108 -115 155 -215 155 -67 0 -113 -16 -211 -71 -265
-148 -578 -171 -793 -57 -93 49 -215 175 -261 268 -36 74 -72 212 -61 231 4 5
232 9 583 9 780 1 892 10 980 86 75 64 109 194 99 379 -13 240 -102 422 -301
613 -162 155 -335 242 -551 277 -109 18 -294 18 -393 0z m288 -466 c197 -32
362 -190 400 -384 16 -85 11 -117 -22 -133 -21 -10 -159 -16 -542 -24 -282 -6
-521 -8 -529 -5 -14 5 -14 13 -1 69 24 108 79 203 169 294 114 114 218 165
375 184 36 4 70 8 75 9 6 0 39 -4 75 -10z"/>
<path d="M38925 7300 c-330 -29 -618 -189 -819 -457 -170 -227 -248 -479 -248
-803 1 -233 34 -387 124 -565 153 -305 421 -507 757 -572 118 -22 349 -22 456
1 209 46 390 166 502 334 l36 55 22 -109 c50 -248 122 -314 309 -284 81 13
134 38 169 80 47 55 50 88 37 384 -8 177 -10 434 -6 741 13 948 13 973 -12
1036 -41 103 -115 150 -236 151 -159 2 -226 -67 -257 -266 l-12 -80 -26 35
c-13 19 -57 66 -98 106 -126 125 -281 194 -480 213 -60 5 -112 9 -118 9 -5 -1
-50 -5 -100 -9z m317 -505 c122 -30 268 -126 346 -227 58 -75 99 -164 123
-265 18 -75 20 -110 16 -238 -3 -127 -8 -163 -30 -230 -67 -205 -225 -371
-415 -434 -259 -87 -526 -18 -689 179 -102 122 -151 257 -160 441 -13 236 57
442 200 596 162 174 373 236 609 178z"/>
<path d="M53793 7299 c-107 -9 -229 -39 -331 -80 -315 -126 -577 -421 -676
-761 -75 -261 -73 -594 5 -833 91 -276 316 -529 575 -646 274 -124 663 -126
907 -3 119 60 204 133 289 251 l45 61 23 -109 c26 -127 65 -217 107 -247 58
-41 163 -49 263 -20 57 17 108 57 131 104 23 50 23 15 11 479 -4 154 -3 565 1
912 9 691 8 710 -48 795 -57 86 -227 120 -332 67 -56 -29 -108 -105 -118 -172
-3 -23 -11 -67 -17 -97 l-10 -55 -17 25 c-30 48 -146 162 -203 201 -107 73
-224 113 -381 129 -54 5 -107 9 -116 9 -9 -1 -57 -5 -108 -10z m242 -489 c267
-38 479 -227 545 -486 77 -300 -2 -606 -203 -790 -124 -114 -268 -167 -447
-168 -181 0 -297 49 -426 178 -141 141 -196 288 -196 531 -1 103 4 147 21 210
79 293 283 492 541 525 80 11 88 11 165 0z"/>
<path d="M72355 7299 c-84 -12 -194 -53 -278 -102 -97 -57 -222 -182 -284
-285 l-51 -83 -6 48 c-3 26 -8 89 -11 138 -8 114 -27 173 -68 213 -44 43 -79
54 -170 53 -120 -1 -221 -57 -246 -135 -6 -19 -13 -388 -18 -921 -11 -1207
-11 -1150 14 -1206 38 -84 126 -129 253 -129 128 0 217 43 259 125 l26 50 0
535 c0 520 1 537 22 622 44 174 116 303 219 397 116 106 206 141 384 148 139
5 180 14 228 50 97 73 122 280 47 395 -48 72 -180 109 -320 87z"/>
<path d="M91010 7299 c-394 -34 -747 -276 -929 -637 -103 -205 -155 -501 -132
-749 29 -291 135 -527 326 -719 153 -154 336 -250 549 -288 341 -61 638 5 832
186 41 39 96 101 122 137 l47 65 12 -74 c45 -271 125 -351 318 -320 80 13 133
38 168 80 46 55 50 90 37 364 -9 172 -10 419 -6 781 11 915 11 933 -8 997 -33
113 -112 169 -239 170 -157 1 -222 -62 -255 -248 l-17 -95 -56 69 c-179 219
-430 311 -769 281z m324 -506 c166 -41 329 -171 406 -323 61 -121 75 -189 75
-370 0 -182 -11 -242 -65 -356 -85 -177 -244 -310 -431 -360 -78 -21 -242 -23
-319 -5 -141 34 -273 128 -359 256 -93 139 -127 280 -118 480 7 143 24 210 82
330 72 151 210 282 351 334 109 41 250 47 378 14z"/>
<path d="M95880 7299 c-403 -35 -752 -278 -936 -653 -148 -304 -174 -719 -62
-1034 133 -377 428 -633 817 -709 113 -22 349 -22 447 0 97 22 193 58 261 98
72 43 190 154 239 224 20 30 40 55 43 55 4 0 14 -39 23 -87 46 -249 125 -323
312 -293 83 13 137 39 169 82 45 59 49 99 37 331 -8 148 -10 445 -5 983 7 716
6 776 -10 827 -36 115 -112 169 -243 169 -91 0 -143 -20 -190 -77 -32 -40 -44
-74 -63 -182 -7 -40 -15 -73 -18 -73 -4 0 -32 31 -62 68 -169 206 -430 300
-759 271z m325 -506 c168 -42 331 -176 410 -338 58 -117 70 -179 70 -360 0
-181 -12 -242 -71 -359 -88 -175 -242 -303 -425 -352 -78 -21 -242 -23 -319
-5 -174 42 -323 164 -403 332 -49 102 -63 154 -75 269 -36 367 160 712 458
809 100 32 238 34 355 4z"/>
<path d="M41131 7274 c-92 -25 -151 -81 -177 -169 -23 -81 -15 -1318 9 -1442
65 -322 207 -548 422 -673 73 -42 216 -87 320 -101 123 -16 319 -6 413 21 200
57 372 194 487 389 l44 73 5 -33 c3 -19 10 -83 16 -144 13 -142 24 -178 66
-225 47 -52 110 -75 204 -74 120 1 207 49 246 135 16 38 17 54 4 282 -7 136
-16 583 -19 1022 l-6 780 -24 48 c-30 61 -86 102 -159 118 -118 24 -246 -8
-315 -79 -73 -75 -71 -58 -78 -632 -6 -537 -9 -585 -56 -755 -80 -291 -226
-423 -498 -449 -149 -15 -293 32 -379 124 -54 58 -96 140 -128 255 -23 79 -23
87 -24 690 0 336 -4 631 -8 656 -9 63 -56 133 -104 158 -37 19 -142 42 -187
40 -11 0 -44 -7 -74 -15z"/>
<path d="M73287 7280 c-125 -32 -179 -97 -198 -241 -18 -129 -6 -1217 14
-1339 44 -267 141 -467 294 -610 140 -131 318 -196 560 -207 154 -7 251 6 366
47 180 66 334 202 439 388 17 29 32 52 33 50 2 -2 8 -62 14 -135 6 -72 18
-154 27 -182 31 -105 110 -156 239 -155 143 0 243 65 268 174 3 14 1 88 -4
165 -6 77 -14 527 -18 1000 -6 655 -11 870 -20 900 -64 198 -422 208 -531 15
l-25 -45 -6 -495 c-5 -391 -9 -519 -23 -608 -57 -378 -187 -564 -436 -623 -84
-20 -244 -17 -313 5 -157 51 -252 176 -304 402 -16 72 -18 135 -18 699 0 699
3 671 -77 739 -58 50 -196 77 -281 56z"/>
<path d="M63103 3735 c5 -31 3 -37 -19 -45 -13 -5 -29 -21 -34 -35 -7 -19 -17
-25 -41 -25 l-31 0 4 -57 3 -58 -33 -3 -34 -3 4 -57 3 -57 -33 -3 -34 -3 4
-57 3 -57 -34 -3 -33 -3 4 -56 c4 -50 3 -55 -19 -64 -13 -5 -28 -20 -33 -33
-9 -25 -13 -25 -117 -28 -103 -3 -108 -4 -120 -28 -12 -24 -15 -25 -150 -30
l-138 -5 -13 -27 -13 -28 -150 0 -149 0 0 -59 c0 -57 27 -129 53 -140 4 -2 12
-14 17 -27 6 -13 20 -28 33 -33 14 -5 27 -19 30 -30 3 -11 16 -25 30 -30 13
-5 27 -19 30 -30 3 -11 16 -25 30 -30 13 -5 27 -19 30 -30 3 -11 16 -25 30
-30 13 -5 27 -19 30 -30 3 -11 16 -25 30 -30 13 -5 27 -19 30 -30 3 -11 16
-25 30 -30 13 -5 27 -19 30 -30 3 -11 16 -25 30 -30 13 -5 27 -19 30 -30 3
-11 17 -25 32 -31 15 -6 25 -16 23 -22 -3 -7 12 -20 33 -30 46 -20 54 -44 45
-140 -7 -73 -25 -113 -57 -123 -13 -4 -19 -16 -19 -36 0 -20 -12 -46 -34 -72
-25 -32 -36 -59 -46 -112 -15 -82 -51 -186 -91 -267 -29 -57 -37 -119 -20
-147 8 -12 16 -10 48 9 25 15 58 23 96 25 43 3 68 10 95 29 48 32 139 73 186
81 20 4 58 25 84 46 26 22 67 46 92 55 25 9 84 31 133 50 153 60 254 60 372 0
28 -14 60 -26 71 -26 12 0 32 -8 45 -19 41 -32 129 -81 145 -81 9 0 18 -9 21
-20 6 -23 5 -22 56 -25 20 -1 45 -9 55 -18 10 -9 44 -26 75 -36 32 -11 84 -39
117 -62 56 -39 61 -41 90 -29 57 24 62 43 33 124 -14 39 -33 77 -42 84 -12 10
-15 28 -13 75 1 37 -3 70 -10 83 -57 94 -72 132 -75 194 -3 36 -7 88 -9 115
-5 42 -2 53 15 69 14 13 21 31 21 58 0 42 29 95 77 144 16 16 40 49 54 74 27
50 64 109 79 127 6 7 15 23 21 37 6 13 20 27 30 29 10 3 23 16 28 30 5 13 19
27 30 30 11 3 25 16 30 30 5 13 19 27 30 30 11 3 25 17 31 31 6 16 17 26 30
26 13 0 24 -10 30 -26 6 -14 20 -28 31 -31 11 -3 25 -17 30 -30 5 -14 19 -27
30 -30 11 -3 25 -17 30 -30 5 -14 19 -27 30 -30 11 -3 25 -16 30 -30 5 -13 19
-27 32 -32 14 -5 27 -19 30 -30 3 -11 16 -25 30 -30 13 -5 27 -19 30 -30 3
-11 16 -25 30 -30 13 -5 27 -19 30 -30 3 -12 15 -25 27 -29 21 -8 21 -12 21
-197 0 -105 -2 -197 -5 -205 -2 -8 -9 -39 -15 -68 -6 -29 -17 -63 -25 -75 -10
-16 -15 -70 -18 -199 l-4 -178 49 0 c58 0 206 67 247 112 16 17 57 38 110 57
123 43 185 68 243 97 33 17 67 26 98 26 31 0 50 5 53 14 8 22 47 17 53 -7 3
-12 11 -18 19 -15 8 3 32 -1 55 -9 23 -8 53 -15 66 -15 14 0 37 -13 53 -29 19
-18 43 -31 67 -34 38 -4 359 -141 419 -177 23 -15 49 -20 103 -20 l71 0 0 79
0 80 -31 3 -32 3 2 177 2 177 -31 3 -32 3 1 195 c0 188 0 194 20 202 12 4 25
18 30 31 5 14 19 27 30 30 11 3 25 16 30 30 5 13 19 27 30 30 11 3 25 16 30
30 5 13 19 27 30 30 11 3 25 16 30 30 5 13 19 27 30 30 11 3 25 16 30 30 5 13
19 27 31 30 12 3 24 15 27 27 3 12 16 26 30 31 13 5 26 17 30 26 4 10 19 30
35 45 l28 26 28 -26 c16 -15 31 -35 35 -45 4 -9 17 -21 30 -26 14 -5 27 -19
30 -30 3 -11 16 -25 30 -30 13 -5 27 -19 30 -30 3 -11 16 -25 30 -30 13 -5 27
-19 30 -30 3 -11 16 -25 30 -30 13 -5 27 -19 30 -30 3 -11 16 -25 30 -30 13
-5 27 -19 30 -30 3 -11 16 -25 30 -30 13 -5 27 -19 30 -30 3 -12 15 -25 27
-29 21 -8 21 -12 21 -202 l1 -195 -31 -3 -31 -3 0 -213 c0 -117 -3 -234 -6
-260 l-7 -46 119 0 119 0 17 39 c16 38 20 40 65 43 39 2 50 7 60 28 10 20 22
26 60 30 38 4 50 10 60 30 10 20 22 26 60 30 38 4 50 10 60 30 11 23 19 25 90
30 73 5 79 7 91 33 17 35 47 35 64 0 12 -26 18 -28 91 -33 71 -5 79 -7 90 -30
10 -20 22 -26 60 -30 38 -4 50 -10 60 -30 10 -20 22 -26 60 -30 38 -4 50 -10
60 -30 10 -21 21 -26 60 -28 45 -3 49 -5 65 -43 l17 -39 142 0 143 0 0 79 0
80 -31 3 -32 3 2 177 2 177 -31 3 -32 3 1 195 c0 190 0 194 21 202 12 4 24 17
27 27 4 15 18 21 64 26 32 4 59 11 59 16 0 5 5 9 10 9 15 0 73 41 85 60 14 23
44 113 45 135 0 11 9 26 20 33 11 7 20 19 20 27 0 9 11 20 25 25 14 5 30 21
35 35 13 34 47 33 60 -1 6 -14 20 -28 31 -31 11 -3 25 -17 30 -30 5 -14 19
-27 30 -30 11 -3 25 -17 30 -30 5 -14 19 -27 30 -30 11 -3 25 -17 30 -30 5
-14 19 -27 30 -30 11 -3 25 -17 30 -30 5 -14 19 -27 30 -30 11 -3 25 -17 30
-30 5 -14 19 -27 30 -30 11 -3 25 -16 30 -30 5 -13 18 -27 30 -31 20 -8 20
-14 20 -202 l1 -195 -31 -3 -31 -3 0 -213 c0 -117 -3 -234 -6 -260 l-7 -46
119 0 119 0 17 39 c16 38 20 40 65 43 39 2 50 7 60 28 10 20 22 26 60 30 38 4
50 10 60 30 10 20 22 26 60 30 38 4 50 10 60 30 11 23 19 25 90 30 73 5 79 7
91 33 17 35 47 35 64 0 12 -26 18 -28 91 -33 71 -5 79 -7 90 -30 10 -20 22
-26 60 -30 38 -4 50 -10 60 -30 10 -20 22 -26 60 -30 38 -4 50 -10 60 -30 10
-21 21 -26 60 -28 39 -3 50 -7 57 -26 19 -52 32 -56 176 -56 l134 0 0 79 0 80
-31 3 -32 3 2 177 2 177 -31 3 -32 3 1 195 c0 190 0 194 21 202 12 4 24 17 27
29 3 11 17 25 30 30 14 5 27 19 30 30 3 11 17 25 30 30 14 5 27 19 30 30 3 11
17 25 30 30 14 5 27 19 30 30 3 11 17 25 30 30 14 5 27 19 30 30 3 11 17 25
30 30 14 5 27 19 30 30 3 11 16 25 30 30 13 5 28 20 33 34 13 33 47 33 60 0 5
-14 20 -29 33 -34 14 -5 27 -19 30 -30 3 -11 16 -25 30 -30 13 -5 27 -19 30
-30 3 -11 16 -25 30 -30 13 -5 27 -19 30 -30 3 -11 16 -25 30 -30 13 -5 27
-19 30 -30 3 -11 16 -25 30 -30 13 -5 27 -19 30 -30 3 -11 16 -25 30 -30 13
-5 27 -19 30 -30 3 -12 15 -25 27 -29 21 -8 21 -12 21 -202 l1 -195 -31 -3
-31 -3 0 -213 c0 -117 -3 -234 -6 -260 l-7 -46 119 0 119 0 17 39 c16 38 20
40 65 43 39 2 50 7 60 28 10 20 22 26 60 30 38 4 50 10 60 30 10 20 22 26 60
30 38 4 50 10 60 30 11 23 19 25 90 30 73 5 79 7 91 33 17 35 47 35 64 0 12
-26 18 -28 91 -33 71 -5 79 -7 90 -30 10 -20 22 -26 60 -30 38 -4 50 -10 60
-30 10 -20 22 -26 60 -30 38 -4 50 -10 60 -30 10 -21 21 -26 60 -28 45 -3 49
-5 65 -43 l17 -39 142 0 143 0 0 79 0 80 -31 3 -32 3 2 177 2 177 -31 3 -32 3
1 195 c0 188 0 194 20 202 12 4 25 18 30 31 5 14 19 27 30 30 11 3 25 16 30
30 5 13 19 27 30 30 11 3 25 16 30 30 5 13 19 27 30 30 11 3 25 16 30 30 5 13
19 27 30 30 11 3 25 16 30 30 5 13 19 27 30 30 11 3 25 16 30 30 5 13 19 27
30 30 11 3 25 16 30 30 5 13 19 27 30 30 11 3 25 17 31 31 7 20 16 26 40 26
l30 0 0 100 0 100 -149 0 -150 0 -13 27 -13 28 -138 5 c-135 5 -138 6 -150 30
-12 24 -17 25 -120 28 -104 3 -108 3 -117 28 -5 13 -20 28 -33 33 -22 9 -23
14 -19 64 l4 56 -33 3 -34 3 3 57 4 57 -34 3 -33 3 3 57 4 57 -34 3 -33 3 3
58 4 57 -31 0 c-24 0 -34 6 -41 25 -5 14 -21 30 -34 35 -22 8 -24 14 -19 45
l6 35 -103 0 -103 0 6 -35 c5 -31 3 -37 -19 -45 -13 -5 -29 -21 -34 -35 -7
-19 -17 -25 -41 -25 l-31 0 4 -57 3 -58 -33 -3 -34 -3 4 -57 3 -57 -33 -3 -34
-3 4 -57 3 -57 -34 -3 -33 -3 4 -56 c4 -50 3 -55 -19 -64 -13 -5 -28 -20 -33
-33 -9 -25 -13 -25 -117 -28 -103 -3 -108 -4 -120 -28 -12 -24 -15 -25 -150
-30 l-138 -5 -13 -27 -13 -28 -199 0 -199 0 -13 28 -13 27 -138 5 c-135 5
-138 6 -150 30 -12 24 -17 25 -120 28 -104 3 -108 3 -117 28 -5 13 -20 28 -33
33 -22 9 -23 14 -19 64 l4 56 -33 3 -34 3 3 57 4 57 -34 3 -33 3 3 57 4 57
-34 3 -33 3 3 58 4 57 -31 0 c-24 0 -34 6 -41 25 -5 14 -21 30 -34 35 -22 8
-24 14 -19 45 l6 35 -103 0 -103 0 6 -35 c5 -31 3 -37 -19 -45 -13 -5 -29 -21
-34 -35 -7 -19 -17 -25 -41 -25 l-31 0 4 -57 3 -58 -33 -3 -34 -3 4 -57 3 -57
-33 -3 -34 -3 4 -57 3 -57 -34 -3 -33 -3 4 -56 c4 -50 3 -55 -19 -64 -13 -5
-28 -20 -33 -33 -9 -25 -13 -25 -117 -28 -103 -3 -108 -4 -120 -28 -12 -24
-15 -25 -150 -30 l-138 -5 -13 -27 -13 -28 -199 0 c-124 0 -201 4 -205 10 -4
6 -24 19 -45 30 -32 16 -59 20 -144 20 -74 0 -107 4 -113 13 -9 15 -104 38
-181 44 -45 4 -55 9 -62 29 -5 13 -21 29 -35 34 -21 8 -25 15 -20 31 9 27 -22
86 -48 93 -14 3 -17 10 -12 26 4 12 4 37 1 55 -5 27 -12 34 -34 37 -26 3 -27
4 -24 60 l4 57 -34 3 -33 3 3 58 4 57 -31 0 c-24 0 -34 6 -41 25 -5 14 -21 30
-34 35 -22 8 -24 14 -19 45 l6 35 -103 0 -103 0 6 -35 c5 -31 3 -37 -19 -45
-13 -5 -29 -21 -34 -35 -7 -19 -17 -25 -41 -25 l-31 0 4 -57 3 -58 -33 -3 -34
-3 4 -57 3 -57 -33 -3 -34 -3 4 -57 3 -57 -34 -3 -33 -3 4 -56 c4 -50 3 -55
-19 -64 -13 -5 -28 -20 -33 -33 -9 -25 -13 -25 -117 -28 -103 -3 -108 -4 -120
-28 -12 -24 -15 -25 -150 -30 l-138 -5 -13 -27 -13 -28 -229 0 -229 0 -13 28
-13 27 -138 5 c-135 5 -138 6 -150 30 -12 24 -17 25 -120 28 -104 3 -108 3
-117 28 -5 13 -20 28 -33 33 -22 9 -23 14 -19 64 l4 56 -33 3 -34 3 3 57 4 57
-34 3 -33 3 3 57 4 57 -34 3 -33 3 3 58 4 57 -31 0 c-24 0 -34 6 -41 25 -5 14
-21 30 -34 35 -22 8 -24 14 -19 45 l6 35 -103 0 -103 0 6 -35 c5 -31 3 -37
-19 -45 -13 -5 -29 -21 -34 -35 -7 -19 -17 -25 -41 -25 l-31 0 4 -57 3 -58
-33 -3 -34 -3 4 -57 3 -57 -33 -3 -34 -3 4 -57 3 -57 -34 -3 -33 -3 4 -56 c4
-50 3 -55 -19 -64 -13 -5 -28 -20 -33 -33 -9 -25 -13 -25 -117 -28 -103 -3
-108 -4 -120 -28 -12 -24 -15 -25 -150 -30 l-138 -5 -13 -27 -13 -28 -172 0
c-95 0 -182 3 -195 6 -22 6 -22 7 -5 27 18 20 18 20 -28 14 -26 -4 -73 -2
-105 4 -33 6 -88 10 -124 10 -39 -1 -86 7 -118 18 -29 10 -63 16 -76 14 -32
-6 -98 13 -121 36 -53 50 -60 65 -56 118 l3 52 -34 3 -33 3 3 57 4 57 -34 3
-33 3 3 57 4 57 -34 3 -33 3 3 58 4 57 -31 0 c-24 0 -34 6 -41 25 -5 14 -21
30 -34 35 -22 8 -24 14 -19 45 l6 35 -103 0 -103 0 6 -35z"/>
<path d="M81188 2573 l-6008 -3 0 -190 0 -190 6113 0 c3363 0 8065 3 10450 7
l4337 6 0 189 0 188 -4442 -2 c-2444 -2 -7146 -4 -10450 -5z"/>
<path d="M45808 2543 l-6008 -3 0 -190 0 -190 6113 0 c3363 0 8065 3 10450 7
l4337 6 0 189 0 188 -4442 -2 c-2444 -2 -7146 -4 -10450 -5z"/>
</g>
</svg>
